<svg width="32" height="32" viewBox="0 0 32 32" fill="none" xmlns="http://www.w3.org/2000/svg">
  <defs>
    <linearGradient id="sand-logo-gradient" x1="6" y1="4" x2="26" y2="28" gradientUnits="userSpaceOnUse">
      <stop offset="0%" stop-color="#00AEEF" />
      <stop offset="100%" stop-color="#2E57FF" />
    </linearGradient>
  </defs>
  <rect x="2" y="2" width="28" height="28" rx="8" fill="#E6F4FF" />
  <path
    fill="url(#sand-logo-gradient)"
    d="M23 8.5c0-2.485-2.291-4.5-5.333-4.5H14c-2.941 0-5.333 2.015-5.333 4.5v1.167h3.556V8.5c0-.738.882-1.333 1.777-1.333h4.111C19.006 7.167 20 7.762 20 8.5c0 .738-.994 1.333-2.889 1.333H14c-3.588 0-6.5 2.38-6.5 5.311 0 2.932 2.912 5.311 6.5 5.311h3.111c1.895 0 2.889.595 2.889 1.333 0 .738-.994 1.333-2.889 1.333h-4.111c-.895 0-1.777-.595-1.777-1.333v-1.167H8.667v1.167c0 2.485 2.392 4.5 5.333 4.5h3.667c3.042 0 5.333-2.015 5.333-4.5v-1.167c0-2.931-2.912-5.311-6.5-5.311H14c-1.895 0-2.889-.595-2.889-1.333 0-.738.994-1.333 2.889-1.333h3.667c3.042 0 5.333-2.015 5.333-4.5V8.5Z"
  />
</svg>
